# File created by Blade
# Date/Time:  Thu Sep 25 19:26:26 2014
# Frame Rate: 120.000 fps
#------------------------------------------------------
:FULLY-SPECIFIED
:DEGREES
999
root 1.105527 31.553834 -13.094198 108.932783 30.581283 8.821955
Spine 42.249807 -1.655009 -3.899475
Head 20.533890 -18.350000 -35.262690
LeftShoulder 10.764033 -49.251210 34.913981
LeftArm 37.942620 -15.352238 -37.888877
LeftForeArm 13.534583 -0.000000 31.865064
LeftHand -40.229291 0.000000 82.394065
LeftHandThumb1 -26.253704 0.000000 33.147579
RightShoulder -10.796281 63.545860 -64.488128
RightArm 46.989720 0.297876 40.664719
RightForeArm -54.916879 -0.000000 43.360193
RightHand -14.106002 -0.000000 -22.744684
RightHandThumb1 -24.326973 -0.000000 -32.862282
LeftUpLeg -117.676534 2.066164 3.440411
LeftLeg -1.178914 -0.000000 0.000000
LeftFoot 9.923890 -5.442434 -26.702769
LeftToeBase 6.885809 -0.000000 -0.000000
RightUpLeg -109.535956 -20.297774 35.361824
RightLeg 0.222307 -0.000000 -0.000000
RightFoot 1.302550 -20.497214 17.147335
RightToeBase 5.592817 -0.000000 -0.000000
1000
root 1.105457 31.552900 -13.102993 108.884078 30.600788 8.796906
Spine 42.266472 -1.633118 -3.906302
Head 20.447913 -18.355991 -35.231529
LeftShoulder 10.780123 -49.212050 34.886501
LeftArm 37.996089 -15.309768 -37.781604
LeftForeArm 13.470819 -0.000000 31.825400
LeftHand -40.344846 -0.000000 82.394081
LeftHandThumb1 -26.253704 0.000000 33.147579
RightShoulder -10.859174 63.536972 -64.561192
RightArm 46.967177 0.296329 40.714410
RightForeArm -54.941323 -0.000000 43.340573
RightHand -14.118962 -0.000000 -22.764971
RightHandThumb1 -24.326973 -0.000000 -32.862282
LeftUpLeg -117.655246 2.082113 3.451984
LeftLeg -1.179208 -0.000000 0.000000
LeftFoot 9.991864 -5.438374 -26.855875
LeftToeBase 6.573972 -0.000000 -0.000000
RightUpLeg -109.493475 -20.310487 35.320896
RightLeg 0.229430 -0.000000 -0.000000
RightFoot 1.300905 -20.508135 17.153297
RightToeBase 5.603124 -0.000000 -0.000000
1001
root 1.105877 31.552963 -13.110366 108.851904 30.624612 8.797306
Spine 42.282246 -1.643601 -3.901694
Head 20.363174 -18.330732 -35.186327
LeftShoulder 10.792872 -49.164419 34.857267
LeftArm 38.043949 -15.294930 -37.702685
LeftForeArm 13.443393 -0.000000 31.757860
LeftHand -40.271049 -0.000000 82.368351
LeftHandThumb1 -26.253704 0.000000 33.147579
RightShoulder -10.891305 63.548952 -64.609542
RightArm 46.940173 0.291458 40.759189
RightForeArm -54.925769 -0.000000 43.318453
RightHand -14.064208 -0.000000 -22.772570
RightHandThumb1 -24.326973 -0.000000 -32.862282
LeftUpLeg -117.634680 2.074150 3.449649
LeftLeg -1.170553 -0.000000 0.000000
LeftFoot 9.916518 -5.515376 -26.646203
LeftToeBase 6.600547 -0.000000 -0.000000
RightUpLeg -109.478619 -20.326740 35.320699
RightLeg 0.252544 -0.000000 -0.000000
RightFoot 1.301344 -20.507890 17.121925
RightToeBase 5.573845 -0.000000 -0.000000
1002
root 1.105876 31.552141 -13.119516 108.822843 30.651916 8.790590
Spine 42.275143 -1.642212 -3.900483
Head 20.302472 -18.318504 -35.161467
LeftShoulder 10.802045 -49.115580 34.825816
LeftArm 38.115798 -15.271776 -37.649112
LeftForeArm 13.409931 0.000000 31.703827
LeftHand -40.276830 -0.000000 82.248211
LeftHandThumb1 -26.253704 0.000000 33.147579
RightShoulder -10.861135 63.512788 -64.572852
RightArm 46.948678 0.303605 40.763589
RightForeArm -54.961802 -0.000000 43.324226
RightHand -14.122600 -0.000000 -22.720729
RightHandThumb1 -24.326973 -0.000000 -32.862282
LeftUpLeg -117.629277 2.077284 3.464797
LeftLeg -1.158469 -0.000000 0.000000
LeftFoot 9.908718 -5.547755 -26.627346
LeftToeBase 6.490034 -0.000000 -0.000000
RightUpLeg -109.463293 -20.338706 35.309777
RightLeg 0.274821 -0.000000 -0.000000
RightFoot 1.293147 -20.506101 17.103885
RightToeBase 5.574410 -0.000000 -0.000000
1003
root 1.106897 31.551553 -13.128390 108.794550 30.674577 8.774542
Spine 42.271361 -1.649388 -3.907236
Head 20.201755 -18.304556 -35.180036
LeftShoulder 10.809431 -49.084586 34.804280
LeftArm 38.137286 -15.250664 -37.595234
LeftForeArm 13.296974 -0.000000 31.684967
LeftHand -40.189019 -0.000000 82.323482
LeftHandThumb1 -26.253704 0.000000 33.147579
RightShoulder -10.876206 63.478732 -64.598917
RightArm 46.965370 0.312231 40.792914
RightForeArm -54.919419 -0.000000 43.301672
RightHand -14.152586 -0.000000 -22.779989
RightHandThumb1 -24.326973 -0.000000 -32.862282
LeftUpLeg -117.624472 2.082054 3.472244
LeftLeg -1.163708 -0.000000 0.000000
LeftFoot 9.873613 -5.566865 -26.492040
LeftToeBase 6.265272 -0.000000 -0.000000
RightUpLeg -109.453088 -20.339084 35.301530
RightLeg 0.299606 -0.000000 -0.000000
RightFoot 1.278416 -20.518056 17.100291
RightToeBase 5.575552 -0.000000 -0.000000
1004
root 1.106943 31.551387 -13.136656 108.773143 30.699135 8.765345
Spine 42.258046 -1.662431 -3.918948
Head 20.145801 -18.288887 -35.186330
LeftShoulder 10.778406 -49.039376 34.805713
LeftArm 38.201966 -15.252838 -37.599329
LeftForeArm 13.401621 -0.000000 31.643249
LeftHand -40.255337 -0.000000 82.158343
LeftHandThumb1 -26.253704 0.000000 33.147579
RightShoulder -10.818747 63.421008 -64.539042
RightArm 47.010255 0.341472 40.773940
RightForeArm -54.893602 0.000000 43.271190
RightHand -14.144712 -0.000000 -22.875057
RightHandThumb1 -24.326973 -0.000000 -32.862282
LeftUpLeg -117.625470 2.088471 3.487667
LeftLeg -1.148026 -0.000000 0.000000
LeftFoot 9.882572 -5.608439 -26.513398
LeftToeBase 6.206132 -0.000000 -0.000000
RightUpLeg -109.438772 -20.341170 35.298348
RightLeg 0.304254 -0.000000 -0.000000
RightFoot 1.297978 -20.523620 17.062316
RightToeBase 5.608330 -0.000000 -0.000000
1005
root 1.107687 31.550838 -13.143681 108.748255 30.720237 8.763353
Spine 42.260899 -1.664795 -3.933285
Head 20.090222 -18.282949 -35.151789
LeftShoulder 10.797026 -49.011001 34.783859
LeftArm 38.243180 -15.221521 -37.531607
LeftForeArm 13.323537 -0.000000 31.605561
LeftHand -40.189441 -0.000000 82.206066
LeftHandThumb1 -26.253704 0.000000 33.147579
RightShoulder -10.767953 63.371861 -64.466991
RightArm 47.035579 0.363338 40.748423
RightForeArm -54.865394 -0.000000 43.260834
RightHand -14.140921 -0.000000 -22.874536
RightHandThumb1 -24.326973 -0.000000 -32.862282
LeftUpLeg -117.614801 2.090172 3.507641
LeftLeg -1.141325 -0.000000 0.000000
LeftFoot 9.868785 -5.625981 -26.509938
LeftToeBase 6.048381 -0.000000 -0.000000
RightUpLeg -109.436447 -20.344576 35.320793
RightLeg 0.321020 -0.000000 -0.000000
RightFoot 1.306115 -20.509964 17.007784
RightToeBase 5.666829 -0.000000 -0.000000
